<mxfile host="app.diagrams.net" modified="2023-04-05T17:34:35.559Z" agent="Mozilla/5.0 (Windows NT 10.0; Win64; x64) AppleWebKit/537.36 (KHTML, like Gecko) Chrome/111.0.0.0 Safari/537.36" etag="bjCwOQzHSaJG5VFY2Yv0" version="21.1.4" type="github">
  <diagram name="Página-1" id="pMf7kpR_u2eBYxhQ3swn">
    <mxGraphModel dx="1709" dy="484" grid="1" gridSize="10" guides="1" tooltips="1" connect="1" arrows="1" fold="1" page="1" pageScale="1" pageWidth="827" pageHeight="1169" math="0" shadow="0">
      <root>
        <mxCell id="0" />
        <mxCell id="1" parent="0" />
        <mxCell id="lwUBw1S72WFvgPPnt8Zy-23" value="" style="edgeStyle=orthogonalEdgeStyle;rounded=0;orthogonalLoop=1;jettySize=auto;html=1;" edge="1" parent="1" source="lwUBw1S72WFvgPPnt8Zy-17" target="lwUBw1S72WFvgPPnt8Zy-22">
          <mxGeometry relative="1" as="geometry" />
        </mxCell>
        <mxCell id="lwUBw1S72WFvgPPnt8Zy-17" value="INICIO" style="shape=callout;whiteSpace=wrap;html=1;perimeter=calloutPerimeter;" vertex="1" parent="1">
          <mxGeometry x="180" y="240" width="120" height="80" as="geometry" />
        </mxCell>
        <mxCell id="lwUBw1S72WFvgPPnt8Zy-40" value="" style="edgeStyle=orthogonalEdgeStyle;rounded=0;orthogonalLoop=1;jettySize=auto;html=1;" edge="1" parent="1" source="lwUBw1S72WFvgPPnt8Zy-22" target="lwUBw1S72WFvgPPnt8Zy-39">
          <mxGeometry relative="1" as="geometry" />
        </mxCell>
        <mxCell id="lwUBw1S72WFvgPPnt8Zy-22" value="INSCRIÇÃO DO EVENTO&amp;nbsp;" style="rounded=1;whiteSpace=wrap;html=1;fillColor=#dae8fc;strokeColor=#6c8ebf;" vertex="1" parent="1">
          <mxGeometry x="180" y="410" width="120" height="60" as="geometry" />
        </mxCell>
        <mxCell id="lwUBw1S72WFvgPPnt8Zy-42" value="" style="edgeStyle=orthogonalEdgeStyle;rounded=0;orthogonalLoop=1;jettySize=auto;html=1;" edge="1" parent="1" source="lwUBw1S72WFvgPPnt8Zy-39" target="lwUBw1S72WFvgPPnt8Zy-41">
          <mxGeometry relative="1" as="geometry" />
        </mxCell>
        <mxCell id="lwUBw1S72WFvgPPnt8Zy-49" value="" style="edgeStyle=orthogonalEdgeStyle;rounded=0;orthogonalLoop=1;jettySize=auto;html=1;" edge="1" parent="1" source="lwUBw1S72WFvgPPnt8Zy-39" target="lwUBw1S72WFvgPPnt8Zy-48">
          <mxGeometry relative="1" as="geometry" />
        </mxCell>
        <mxCell id="lwUBw1S72WFvgPPnt8Zy-39" value="INFORME SUA IDADE" style="rounded=1;whiteSpace=wrap;html=1;fillColor=#dae8fc;strokeColor=#6c8ebf;" vertex="1" parent="1">
          <mxGeometry x="180" y="550" width="120" height="60" as="geometry" />
        </mxCell>
        <mxCell id="lwUBw1S72WFvgPPnt8Zy-44" value="" style="edgeStyle=orthogonalEdgeStyle;rounded=0;orthogonalLoop=1;jettySize=auto;html=1;" edge="1" parent="1" source="lwUBw1S72WFvgPPnt8Zy-41" target="lwUBw1S72WFvgPPnt8Zy-43">
          <mxGeometry relative="1" as="geometry" />
        </mxCell>
        <mxCell id="lwUBw1S72WFvgPPnt8Zy-41" value="MENOR DE 18 ANOS" style="rounded=1;whiteSpace=wrap;html=1;fillColor=#dae8fc;strokeColor=#6c8ebf;" vertex="1" parent="1">
          <mxGeometry x="-20" y="550" width="120" height="60" as="geometry" />
        </mxCell>
        <mxCell id="lwUBw1S72WFvgPPnt8Zy-43" value="NÃO" style="whiteSpace=wrap;html=1;fillColor=#dae8fc;strokeColor=#6c8ebf;rounded=1;" vertex="1" parent="1">
          <mxGeometry x="-20" y="690" width="120" height="60" as="geometry" />
        </mxCell>
        <mxCell id="lwUBw1S72WFvgPPnt8Zy-51" value="" style="edgeStyle=orthogonalEdgeStyle;rounded=0;orthogonalLoop=1;jettySize=auto;html=1;" edge="1" parent="1" source="lwUBw1S72WFvgPPnt8Zy-48" target="lwUBw1S72WFvgPPnt8Zy-50">
          <mxGeometry relative="1" as="geometry" />
        </mxCell>
        <mxCell id="lwUBw1S72WFvgPPnt8Zy-48" value="MAIOR DE 18 ANOS" style="whiteSpace=wrap;html=1;fillColor=#dae8fc;strokeColor=#6c8ebf;rounded=1;" vertex="1" parent="1">
          <mxGeometry x="180" y="690" width="120" height="60" as="geometry" />
        </mxCell>
        <mxCell id="lwUBw1S72WFvgPPnt8Zy-56" value="" style="edgeStyle=orthogonalEdgeStyle;rounded=0;orthogonalLoop=1;jettySize=auto;html=1;" edge="1" parent="1" source="lwUBw1S72WFvgPPnt8Zy-50" target="lwUBw1S72WFvgPPnt8Zy-55">
          <mxGeometry relative="1" as="geometry" />
        </mxCell>
        <mxCell id="lwUBw1S72WFvgPPnt8Zy-50" value="SIM" style="whiteSpace=wrap;html=1;fillColor=#dae8fc;strokeColor=#6c8ebf;rounded=1;" vertex="1" parent="1">
          <mxGeometry x="380" y="690" width="120" height="60" as="geometry" />
        </mxCell>
        <mxCell id="lwUBw1S72WFvgPPnt8Zy-58" value="" style="edgeStyle=orthogonalEdgeStyle;rounded=0;orthogonalLoop=1;jettySize=auto;html=1;" edge="1" parent="1" source="lwUBw1S72WFvgPPnt8Zy-55" target="lwUBw1S72WFvgPPnt8Zy-57">
          <mxGeometry relative="1" as="geometry" />
        </mxCell>
        <mxCell id="lwUBw1S72WFvgPPnt8Zy-60" value="" style="edgeStyle=orthogonalEdgeStyle;rounded=0;orthogonalLoop=1;jettySize=auto;html=1;" edge="1" parent="1" source="lwUBw1S72WFvgPPnt8Zy-55" target="lwUBw1S72WFvgPPnt8Zy-59">
          <mxGeometry relative="1" as="geometry" />
        </mxCell>
        <mxCell id="lwUBw1S72WFvgPPnt8Zy-62" value="" style="edgeStyle=orthogonalEdgeStyle;rounded=0;orthogonalLoop=1;jettySize=auto;html=1;" edge="1" parent="1" source="lwUBw1S72WFvgPPnt8Zy-55" target="lwUBw1S72WFvgPPnt8Zy-61">
          <mxGeometry relative="1" as="geometry" />
        </mxCell>
        <mxCell id="lwUBw1S72WFvgPPnt8Zy-55" value="LISTA&amp;nbsp;" style="whiteSpace=wrap;html=1;fillColor=#dae8fc;strokeColor=#6c8ebf;rounded=1;" vertex="1" parent="1">
          <mxGeometry x="580" y="690" width="120" height="60" as="geometry" />
        </mxCell>
        <mxCell id="lwUBw1S72WFvgPPnt8Zy-57" value="LIMITE DE 100 INSCRITOS" style="whiteSpace=wrap;html=1;fillColor=#dae8fc;strokeColor=#6c8ebf;rounded=1;" vertex="1" parent="1">
          <mxGeometry x="580" y="830" width="120" height="60" as="geometry" />
        </mxCell>
        <mxCell id="lwUBw1S72WFvgPPnt8Zy-64" value="" style="edgeStyle=orthogonalEdgeStyle;rounded=0;orthogonalLoop=1;jettySize=auto;html=1;" edge="1" parent="1" source="lwUBw1S72WFvgPPnt8Zy-59" target="lwUBw1S72WFvgPPnt8Zy-63">
          <mxGeometry relative="1" as="geometry" />
        </mxCell>
        <mxCell id="lwUBw1S72WFvgPPnt8Zy-59" value="CADASTRO APROVADO" style="rounded=1;whiteSpace=wrap;html=1;fillColor=#dae8fc;strokeColor=#6c8ebf;" vertex="1" parent="1">
          <mxGeometry x="780" y="690" width="120" height="60" as="geometry" />
        </mxCell>
        <mxCell id="lwUBw1S72WFvgPPnt8Zy-61" value="PARCIPANTE DEFINIDO POR PALESTRANTE" style="whiteSpace=wrap;html=1;fillColor=#dae8fc;strokeColor=#6c8ebf;rounded=1;" vertex="1" parent="1">
          <mxGeometry x="580" y="550" width="120" height="60" as="geometry" />
        </mxCell>
        <mxCell id="lwUBw1S72WFvgPPnt8Zy-63" value="FINALIZADO COM SUCESSO." style="rounded=1;whiteSpace=wrap;html=1;fillColor=#dae8fc;strokeColor=#6c8ebf;" vertex="1" parent="1">
          <mxGeometry x="980" y="690" width="120" height="60" as="geometry" />
        </mxCell>
      </root>
    </mxGraphModel>
  </diagram>
</mxfile>
